<svg width="32" height="32" viewBox="0 0 32 32" fill="none" xmlns="http://www.w3.org/2000/svg">
<path d="M32 16C32 24.8366 24.8366 32 16 32C7.16344 32 0 24.8366 0 16C0 7.16344 7.16344 0 16 0C24.8366 0 32 7.16344 32 16Z" fill="#EAE6D5"/>
<path fill-rule="evenodd" clip-rule="evenodd" d="M16 0C15.4942 0 14.9938 0.0234724 14.5 0.0693874C6.86064 0.779672 0.779672 6.86064 0.0693874 14.5C0.0234724 14.9938 0 15.4942 0 16C0 16.5058 0.0234724 17.0062 0.0693874 17.5C0.779673 25.1394 6.86064 31.2203 14.5 31.9306C14.9938 31.9765 15.4942 32 16 32C16.5058 32 17.0062 31.9765 17.5 31.9306C25.6332 31.1744 32 24.3307 32 16C32 7.66927 25.6332 0.825588 17.5 0.0693874C17.0062 0.0234724 16.5058 0 16 0ZM14.5 3.0856C8.51901 3.77276 3.77276 8.51901 3.0856 14.5H14.5V3.0856ZM14.5 17.5H3.0856C3.77276 23.481 8.51901 28.2272 14.5 28.9144V17.5ZM17.5 28.9144V3.0856C23.9732 3.8293 29 9.32761 29 16C29 22.6724 23.9732 28.1707 17.5 28.9144Z" fill="#325A5C"/>
</svg>
